<svg width="30" height="30" viewBox="0 0 30 30" fill="none" xmlns="http://www.w3.org/2000/svg">
<g clip-path="url(#clip0_550_3242)">
<path d="M15.0498 27.4585H26.2625C26.9502 27.4585 27.5083 26.9003 27.5083 26.2127V3.78738C27.5083 3.09967 26.9501 2.54156 26.2625 2.54156H15.0498C14.3609 2.54156 13.804 1.98469 13.804 1.29574C13.804 0.606797 14.3609 0.0498047 15.0498 0.0498047H26.2625C28.3231 0.0498047 30 1.72676 30 3.78738V26.2126C30 28.2732 28.3231 29.9501 26.2625 29.9501H15.0498C14.3609 29.9501 13.804 29.3933 13.804 28.7043C13.804 28.0154 14.3609 27.4585 15.0498 27.4585Z" fill="white"/>
<path d="M19.662 14.1129L12.0872 6.63785C11.5988 6.15445 10.809 6.16072 10.3256 6.65033C9.84217 7.13994 9.84715 7.92855 10.338 8.41195L15.7512 13.7541H1.24582C0.556875 13.7541 0 14.311 0 14.9999C0 15.6889 0.556875 16.2458 1.24582 16.2458H15.7512L10.338 21.588C9.84721 22.0714 9.84346 22.86 10.3256 23.3496C10.5697 23.5963 10.8912 23.7209 11.2126 23.7209C11.5291 23.7209 11.8455 23.6013 12.0872 23.362L19.662 15.8869C19.8987 15.6527 20.0332 15.3338 20.0332 14.9999C20.0332 14.6661 19.8999 14.3484 19.662 14.1129Z" fill="white"/>
</g>
<defs>
<clipPath id="clip0_550_3242">
<rect width="30" height="30" fill="white" transform="matrix(-1 0 0 1 30 0)"/>
</clipPath>
</defs>
</svg>
