<svg width="30" height="30" viewBox="0 0 30 30" fill="none" xmlns="http://www.w3.org/2000/svg">
<g clip-path="url(#clip0_550_3220)">
<path d="M14.9502 27.4585H3.73752C3.0498 27.4585 2.4917 26.9003 2.4917 26.2127V3.78738C2.4917 3.09967 3.04986 2.54156 3.73752 2.54156H14.9502C15.6391 2.54156 16.196 1.98469 16.196 1.29574C16.196 0.606797 15.6391 0.0498047 14.9502 0.0498047H3.73752C1.67689 0.0498047 0 1.72676 0 3.78738V26.2126C0 28.2732 1.67689 29.9501 3.73752 29.9501H14.9502C15.6391 29.9501 16.196 29.3933 16.196 28.7043C16.196 28.0154 15.6391 27.4585 14.9502 27.4585Z" fill="white"/>
<path d="M29.6287 14.1129L22.054 6.63785C21.5656 6.15445 20.7758 6.16072 20.2924 6.65033C19.809 7.13994 19.8139 7.92855 20.3048 8.41195L25.718 13.7541H11.2126C10.5237 13.7541 9.9668 14.311 9.9668 14.9999C9.9668 15.6889 10.5237 16.2458 11.2126 16.2458H25.718L20.3048 21.588C19.814 22.0714 19.8103 22.86 20.2924 23.3496C20.5365 23.5963 20.858 23.7209 21.1794 23.7209C21.4959 23.7209 21.8123 23.6013 22.054 23.362L29.6287 15.8869C29.8655 15.6527 30 15.3338 30 14.9999C30 14.6661 29.8667 14.3484 29.6287 14.1129Z" fill="white"/>
</g>
<defs>
<clipPath id="clip0_550_3220">
<rect width="30" height="30" fill="white"/>
</clipPath>
</defs>
</svg>
